<?xml version="1.0" encoding="utf-8"?>
<!-- Generator: Adobe Illustrator 27.5.0, SVG Export Plug-In . SVG Version: 6.00 Build 0)  -->
<svg version="1.1" id="Layer_1" xmlns="http://www.w3.org/2000/svg" xmlns:xlink="http://www.w3.org/1999/xlink" x="0px" y="0px"
	 viewBox="500 300 3100 3100" xml:space="preserve">
<g>
	<g>
		<g>
			<g>
				<g>
					<path style="fill:#FFFFFF;" d="M3156.846,1360.813c-45.913,124.292-160.021,174.5-253.03,289.139
						c-5.317,6.435-10.466,13.039-15.53,19.898l-63.384-36.831l-181.712-105.665c3.207-61.722-3.038-118.704-39.161-160.869
						c-120.607-136.145-226.782-272.883-198.339-414.871l67.52-204.641c33.591-119.466,26.164-246.806-10.803-379.819
						c-3.967-14.309,3.797-29.718,18.062-33.529c38.993-10.329,82.122,27.009,132.001,140.972
						c73.765-108.713,121.873-22.183,131.242,358.567c0.844,31.666,9.958,62.571,26.5,89.494l119.004,194.651
						c8.778,14.308,27.43,17.272,40.005,8.128c2.364-1.693,4.558-3.894,6.33-6.435c43.044-60.706,30.974-159.091-64.145-314.032
						c-16.373-26.755-28.02-56.389-31.565-87.546c-3.798-32.936,0.845-62.232,16.458-87.039c6.667-10.668,22.704-8.043,25.657,4.149
						c3.545,14.647,8.524,28.703,14.685,42.334c48.445,108.799,167.365,190.587,204.838,331.812
						c4.389,16.511,13.843,31.243,27.599,41.404C3196.851,1100.545,3220.146,1191.393,3156.846,1360.813z"/>
				</g>
				<g>
					<path style="fill:#371A45;" d="M2888.229,1697.193c-4.687,0-9.42-1.203-13.728-3.708l-245.072-142.522
						c-8.863-5.155-14.096-14.831-13.56-25.071c3.544-67.465-6.515-111.156-32.616-141.656
						c-120.412-135.937-235.654-282.05-204.374-438.026c0.217-1.079,0.5-2.146,0.844-3.19l67.324-204.022
						c30.504-109.023,26.902-228.271-11.011-364.537c-3.962-14.228-2.041-29.701,5.268-42.446
						c7.113-12.405,18.542-21.222,32.184-24.825c64.073-16.906,111.971,49.732,145.613,116.929
						c15.817-14.231,36.443-25.178,59.981-18.261c42.609,12.515,83.244,72.865,91.99,426.657
						c0.662,26.755,8.419,53.005,22.435,75.909l119.062,194.605c0.244,0.408,0.647,0.271,0.686,0.251
						c38.789-54.836,16.867-150.375-65.147-284.027c-19.679-32.064-31.598-65.283-35.428-98.734
						c-4.635-40.449,2.234-75.665,20.419-104.668c8.89-14.182,25.301-21.617,41.77-18.949c16.474,2.665,29.679,14.89,33.639,31.144
						c14.009,57.506,53.698,107.255,95.719,159.926c47.018,58.932,100.309,125.729,123.686,213.654
						c2.939,11.053,8.983,20.235,17.477,26.558c86.834,64.619,98.961,176.554,37.068,342.199
						c-30.766,83.195-88.609,134.721-149.85,189.274c-41.535,37-84.484,75.257-122.387,126.458
						C2904.896,1693.309,2896.643,1697.193,2888.229,1697.193z M2671.145,1511.963l210.132,122.204
						c37.054-45.944,76.583-81.157,114.959-115.342c58.434-52.051,108.901-97.006,134.965-167.496
						c69.589-186.242,22.793-248.579-18.456-279.277c-18.241-13.574-31.623-33.595-37.679-56.376
						c-20.431-76.841-67.785-136.198-113.585-193.602c-37.396-46.874-73.104-91.633-94.169-144.06
						c-1.731,10.965-1.823,23.013-0.305,36.282c2.917,25.457,12.239,51.148,27.71,76.356
						c95.866,156.228,116.533,268.802,63.184,344.16c-10.696,15.109-28.135,23.738-46.686,23.143
						c-18.632-0.625-35.565-10.489-45.292-26.387l-119.062-194.605c-19.022-31.09-29.555-66.741-30.456-103.096
						c-8.058-325.979-44.704-369.58-52.183-375.094c-2.858,1.196-12.554,6.769-29.128,31.203c-5.59,8.241-15.205,12.8-25.137,11.878
						c-9.918-0.915-18.554-7.147-22.542-16.274c-51.982-118.891-85.563-128.245-98.702-125.799c0,0.007,0.002,0.015,0.005,0.022
						c40.74,146.418,44.276,275.483,10.813,394.568c-0.112,0.393-0.232,0.784-0.359,1.172l-66.985,202.992
						c-25.193,130.877,81.152,264.306,192.308,389.796C2666.29,1397.165,2672.473,1459.444,2671.145,1511.963z"/>
				</g>
				<g>
					<path style="fill:#371A45;" d="M2638.133,465.198c37.217,116.371,38.366,239.957,21.672,359.067
						c-0.879,6.307-6.704,10.708-13.011,9.829c-5.947-0.829-10.199-6.055-9.928-11.937c2.87-58.316,1.441-116.64-6.309-173.663
						c-7.716-56.962-21.9-112.581-43.754-164.441C2573.506,448.659,2625.228,429.467,2638.133,465.198L2638.133,465.198z"/>
				</g>
				<g>
					<path style="fill:#371A45;" d="M2914.044,1105.781c26.231,65.281,23.23,143.345-10.311,204.547
						c-6.799,12.545-25.745,4.462-21.412-9.097c20.03-58.115,13.133-120.45-17.872-172.414
						C2846.37,1093.666,2898.764,1069.224,2914.044,1105.781L2914.044,1105.781z"/>
				</g>
				<g>
					<path style="fill:#371A45;" d="M3138.292,1025.908c5.648,41.081,8.565,82.729,6.884,124.393
						c-1.682,41.604-8.096,83.315-21.264,122.876c-2.251,6.763-9.558,10.42-16.32,8.169c-6.302-2.095-9.91-8.595-8.547-14.933
						c15.424-76.377,5.159-155.064-14.381-229.82C3076.562,999.08,3131.316,988.032,3138.292,1025.908L3138.292,1025.908z"/>
				</g>
				<g>
					<path style="fill:#371A45;" d="M2739.02,1475.936c-9.021-46.048-32.828-88.641-56.861-129.838
						c-88.586-142.433-140.172-263.703-128.612-435.85c1.021-14.042,21.766-13.876,22.191,0.518
						c-1.488,98.579,20.029,197.322,67.044,284.181c45.732,90.808,122.781,167.654,149.62,269.125
						C2800.246,1500.399,2747.478,1512.436,2739.02,1475.936L2739.02,1475.936z"/>
				</g>
				<g>
					<path style="fill:#371A45;" d="M2802.329,1488.473c45.036-20.597,87.246-46.7,123.961-79.87
						c36.802-33.029,67.748-72.981,92.707-116.945c3.413-6.094,11.144-8.251,17.218-4.8c5.684,3.228,7.877,10.259,5.28,16.11
						c-21.593,48.227-50.415,94.155-87.04,133.942c-36.496,39.953-80.376,73.231-127.053,100.166
						c-13.094,7.56-29.836,3.073-37.395-10.021C2781.912,1513.214,2787.728,1495.067,2802.329,1488.473L2802.329,1488.473z"/>
				</g>
				<g>
					<path style="fill:#371A45;" d="M2775.092,1489.566c27.479-87.288,25.993-161.08-27.617-236.46
						c-29.808-47.535-52.416-100.25-61.863-155.822c-8.66-49.418-6.476-100.434,5.13-148.555c1.744-7.232,9.02-11.68,16.252-9.936
						c7.033,1.694,11.433,8.629,10.067,15.651c-8.606,45.35-8.223,91.875,1.784,136.302c11.062,50.248,34.062,97.262,63.406,139.394
						c65.548,83.577,71.982,174.872,45.327,274.771C2816.763,1540.273,2765.168,1525.41,2775.092,1489.566L2775.092,1489.566z"/>
				</g>
				<g>
					<path style="fill:#371A45;" d="M2833.181,1544.477c58.809,7.224,112.548-21.949,156.787-60.081
						c8.234-7.068,19.76,3.96,13.037,12.483c-40.106,52.599-100.716,97.884-169.845,102.28
						C2792.65,1601.412,2792.627,1542.189,2833.181,1544.477L2833.181,1544.477z"/>
				</g>
				<g style="opacity:0.2;">
					<path style="fill:#371A45;" d="M3156.846,1360.813c-45.913,124.292-160.021,174.5-253.03,289.139l-22.703-13.208
						c75.875-172.383,112.42-341.718,104.317-507.582c2.364-1.694,4.558-3.895,6.33-6.435
						c43.044-60.707,30.975-159.091-64.143-314.032c-16.374-26.755-28.021-56.389-31.566-87.547
						c-1.772-15.663-1.688-30.395,0.59-44.281c48.445,108.799,167.365,190.587,204.838,331.812
						c4.389,16.511,13.843,31.243,27.599,41.404C3196.851,1100.545,3220.146,1191.393,3156.846,1360.813z"/>
				</g>
			</g>
			<g>
				<g>
					<path style="fill:#00D5BE;" d="M1228.314,2927.164c-192.713-110.068-248.979-428.982-15.474-581.384
						c518.996-325.058,1348.907-413.5,1432.798-847.961c4.332-22.434,22.812-39.694,45.471-42.029
						c294.448-30.344,288.362,851.137-161.635,1186.327c-365.731,443.093-773.663,609.607-1251.927,352.781l-52.074,37.314
						c-29.315,21.006-68.4,22.348-99.044,3.348c-115.651-71.704-181.298-158.045-177.001-264.858
						c1.229-30.54,17.624-58.466,43.831-74.057c22.619-13.456,45.239-26.913,67.858-40.369"/>
				</g>
				<g>
					<path style="fill:#FFFFFF;" d="M2869.812,2052.83c-168.223,38.229-261.317,14.591-213.105-125.402
						c5.552-16.122,8.796-32.953,8.796-50.01v-18.941c0-14.535-2.712-29.131-9.364-42.045
						c-61.51-119.419,109.291-292.804,229.718-90.937C2891.045,1839.757,2888.676,1950.326,2869.812,2052.83z"/>
				</g>
				<g>
					<path style="fill:#FFFFFF;" d="M2043.175,2873.541c63.4-9.866,115.708,5.073,134.063,95.957l-207.613,93.135
						C2008.937,2991.368,2045.893,2921.415,2043.175,2873.541z"/>
				</g>
				<g>
					<path style="fill:#371A45;" d="M1718.544,3143.24c-143.089,0-289.878-38.816-438.82-116.267l-38.325,27.466
						c-38.443,27.544-89.227,29.252-129.378,4.359c-130.479-80.893-194.376-178.194-189.911-289.194
						c1.611-40.056,22.982-76.114,57.167-96.457l53.393-31.762c-0.088-1.967-0.161-3.925-0.22-5.897
						c-3.783-127.569,56.518-241.508,165.445-312.603c0.142-0.093,0.286-0.186,0.43-0.278
						c189.35-118.591,417.266-205.186,637.682-288.935c376.449-143.03,732.022-278.132,782.786-541.037
						c6.595-34.166,35.179-60.501,69.511-64.041c83.693-8.646,151.988,43.673,192.335,147.255
						c52.549,134.902,52.898,344.145,0.913,546.073c-59.647,231.681-177.87,423.344-333.08,540.129
						c-194.642,235.176-389.154,380.744-594.597,445.02C1876.779,3131.191,1798.229,3143.235,1718.544,3143.24z M1277.549,2967.554
						c4.43,0,8.878,1.079,12.932,3.256c434.648,233.399,833.029,120.192,1217.906-346.098c1.399-1.694,2.995-3.212,4.755-4.521
						c321.764-239.677,412.436-778.327,316.545-1024.497c-21.646-55.568-62.754-120.202-135.775-112.708
						c-10.55,1.089-19.362,9.317-21.427,20.013c-56.542,292.831-425.954,433.191-817.055,581.789
						c-217.845,82.773-443.118,168.367-627.854,284.024c-126.598,82.743-142.349,201.569-140.467,265.053
						c0.183,6.166,0.542,12.317,1.067,18.434c0.146,0.991,0.234,1.987,0.271,2.983c9.886,103.858,68.54,199.655,153.431,248.142
						c13.11,7.489,17.67,24.19,10.179,37.303c-7.491,13.108-24.192,17.672-37.303,10.178
						c-88.868-50.757-153.316-144.909-174.735-250.266l-32.782,19.503c-18.224,10.843-29.623,30.156-30.487,51.656
						c-3.664,91.121,50.01,169.798,164.088,240.522c21.312,13.22,48.282,12.297,68.713-2.334l52.073-37.317
						C1266.358,2969.278,1271.942,2967.554,1277.549,2967.554z"/>
				</g>
				<g>
					<path style="fill:#371A45;" d="M1815.13,3137.152c-12.813,0-24.251-9.051-26.804-22.095
						c-2.9-14.822,6.761-29.184,21.583-32.084c92.119-18.029,161.674-73.429,190.834-151.993
						c34.864-93.938,9.539-205.406-69.482-305.817c-9.339-11.868-7.291-29.057,4.577-38.396c11.87-9.339,29.057-7.289,38.394,4.574
						c91.074,115.73,119.424,246.458,77.776,358.669c-35.938,96.833-120.354,164.852-231.598,186.625
						C1818.638,3136.981,1816.87,3137.152,1815.13,3137.152z"/>
				</g>
				<g>
					<path style="fill:#371A45;" d="M1524.957,2985.443c9.223,88.522,22.838,188.1,88.227,253.787
						c76.315,72.499,202.323,69.255,285.851,9.496c180.372-129.589,352.616-116.085,500.868,51.511
						c5.892,7.131-3.434,17.162-10.935,10.219c-108.223-112.267-240.385-160.031-384.426-83.512
						c-32.005,16.209-61.555,37.555-90.217,59.211c-53.996,38.833-121.113,58.582-188.269,53.627
						c-152.499-12.072-222.914-124.031-253.409-262.108c-6.241-28.066-10.929-56.49-14.885-84.609
						C1452.972,2947.122,1519.253,2939.455,1524.957,2985.443L1524.957,2985.443z"/>
				</g>
				<g>
					<path style="fill:#371A45;" d="M1262.855,2303.282c-75.767-98.348-95.443-218.858,21.621-294.75
						c9.218-6.15,19.638-11.963,29.422-17.075c49.957-24.729,96.767-55.798,135.49-95.859
						c36.526-37.516,65.246-83.02,85.563-133.309c1.519-3.786,5.82-5.624,9.606-4.105c3.356,1.347,5.176,4.898,4.49,8.319
						c-23.231,121.863-110.256,218.27-215.931,279.004c-96.369,61.702-73.427,135.981-15.676,217.85
						C1341.91,2300.273,1290.762,2337.813,1262.855,2303.282L1262.855,2303.282z"/>
				</g>
				<g>
					
						<ellipse transform="matrix(0.3277 -0.9448 0.9448 0.3277 -1569.6761 3480.4287)" style="fill:#371A45;" cx="1660.613" cy="2843.115" rx="98.625" ry="57.734"/>
				</g>
				<g>
					<path style="fill:#FFFFFF;" d="M2176.417,2268.934c-55.542,0.567-68.566-72.909-126.384-78.64
						c-66.798-6.62-122.101,84.25-126.385,91.478c-3.035,5.12-62.011,108.249-9.599,197.4
						c58.33,99.216,211.236,107.329,263.966,67.405c7.057-5.344,18.719-16.392,38.395-20.863
						c33.339-7.576,56.616,11.248,84.79,20.863c72.788,24.843,149.511-21.585,161.58-28.888
						c37.506-22.695,99.288-76.456,89.588-125.18c-4.915-24.689-23.638-25.253-70.39-85.058
						c-34.102-43.622-26.727-46.63-44.795-62.59c-41.584-36.734-110.859-47.483-166.378-28.888
						C2215.563,2234.476,2214.198,2268.548,2176.417,2268.934z"/>
				</g>
				<g>
					
						<ellipse transform="matrix(0.9881 -0.1536 0.1536 0.9881 -292.328 402.6879)" style="fill:#FFFFFF;" cx="2460.232" cy="2093.436" rx="104.155" ry="57.29"/>
				</g>
				<g>
					
						<ellipse transform="matrix(0.9881 -0.1536 0.1536 0.9881 -353.9134 401.3619)" style="fill:#381A46;" cx="2420.845" cy="2491.374" rx="104.155" ry="57.29"/>
				</g>
				<g>
					
						<ellipse transform="matrix(0.3279 -0.9447 0.9447 0.3279 190.0246 3691.8381)" style="fill:#381A46;" cx="2689.517" cy="1712.376" rx="104.443" ry="57.132"/>
				</g>
				<g>
					<path style="fill:#381A46;" d="M2121.544,2628.005c5.478,7.279,30.103-10.446,70.333-16.934
						c16.04-2.587,56.175-9.059,92.84,11.289c3.498,1.941,52.248,29.765,47.827,64.912c-2.564,20.39-21.777,33.334-30.947,39.512
						c-25.664,17.291-46.961,14.858-75.96,19.755c-69.702,11.771-72.702,47.113-115.346,45.156
						c-42.449-1.948-94.467-39.492-101.984-94.414c-5.674-41.452,15.82-79.53,42.905-100.322
						c33.631-25.817,82.698-30.217,90.026-16.934C2148.302,2592.837,2115.059,2619.386,2121.544,2628.005z"/>
				</g>
				<g style="opacity:0.2;">
					<path style="fill:#371A45;" d="M2785.328,1502.513c57.863,275.219-43.249,752.616-347.964,979.59
						c-365.731,443.093-773.663,609.607-1251.927,352.781l-52.074,37.313c-29.314,21.006-68.4,22.349-99.045,3.349
						c-37.912-23.505-70.327-48.62-96.79-75.477c4.199,97.643,68.643,177.65,176.969,244.813
						c30.645,19.001,69.731,17.657,99.045-3.349l52.074-37.313c478.264,256.825,886.196,90.312,1251.927-352.781
						C2904.142,2363.473,2963.097,1672.31,2785.328,1502.513z"/>
				</g>
			</g>
			<g>
				<g>
					<path style="fill:#FFFFFF;" d="M1656.202,2279.738c-7.538-142.476,44.888-237.689,175.569-271.218
						c147.859-75.521,275.692-172.92,381.128-294.789c10.444-12.071,29.654-11.541,39.056,1.363
						c21.622,29.675,26.883,63.484,3.254,104.592c-6.664,11.593-9.635,24.97-9.296,38.348l3.241,127.99
						c0.246,9.702-4.445,18.871-12.494,24.255c-160.829,107.576-340.086,206.057-549.401,289.701
						C1672.776,2305.768,1657.029,2295.357,1656.202,2279.738z"/>
				</g>
				<g>
					<path style="fill:#FFFFFF;" d="M3029.908,2009.875c-10.55,41.234-13.672,86.107-8.102,134.114
						c-20.256,57.744-113.771,51.817-224.25,76.455c-39.329,8.721-80.77,21.336-121.788,42.08l75.96-167.219
						c80.349-81.705,165.002-141.225,224.419-145.543c3.375-0.254,6.667-0.254,9.874-0.17
						C3016.237,1950.692,3037.42,1980.495,3029.908,2009.875z"/>
				</g>
				<g>
					<path style="fill:#FFFFFF;" d="M2864.233,2712.7c-71.066,46.652-119.258,114.895-149.051,200.324
						c-62.877,169.505-282.57,66.209-405.876-57.235c-36.884-36.831-65.157-75.525-78.07-109.222l101.28-115.74
						c159.092,16.002,307.89,19.727,441.073,4.318c0.083,0.085,0.083,0.085,0.083,0c1.688-0.085,3.292-0.339,4.895-0.508
						c25.911-3.048,51.738,7.875,67.098,29.042C2855.877,2677.649,2862.123,2693.989,2864.233,2712.7z"/>
				</g>
				<g>
					<path style="fill:#371A45;" d="M2591.179,3029.34c-142.129,0-340.564-155.952-385.446-273.011
						c-5.404-14.099,1.643-29.912,15.742-35.316c14.101-5.414,29.914,1.635,35.318,15.739c37.803,98.6,216.786,237.9,334.335,237.9
						c0.281,0,0.549,0,0.828,0c47.938-0.268,79.824-23.453,97.474-70.871c30.524-87.279,79.084-155.596,144.487-203.351
						c-2.346-7.538-5.785-14.392-10.367-20.699c-9.434-12.986-25.432-19.874-41.804-17.907
						c-128.042,15.163-275.876,13.933-451.942-3.798c-15.024-1.509-25.977-14.914-24.466-29.941
						c1.511-15.026,14.895-26.045,29.943-24.463c172.051,17.316,315.989,18.595,440.031,3.896
						c35.989-4.237,71.42,11.092,92.475,40.071c13.015,17.912,20.968,38.757,23.636,61.956c1.181,10.267-3.527,20.318-12.166,25.986
						c-63.851,41.882-109.086,102.896-138.292,186.533c-0.056,0.166-0.115,0.327-0.176,0.488
						c-25.74,69.46-77.1,106.382-148.527,106.782C2591.907,3029.335,2591.536,3029.34,2591.179,3029.34z"/>
				</g>
				<g>
					<path style="fill:#371A45;" d="M2356.963,2676.929c93.92,34.305,192.658,41.55,291.635,49.674
						c9.859,0.948,10.627,15.362,0.887,17.295c-76.516,14.274-157.409,11.896-231.598-13.332
						c-24.901-8.632-49.022-20.218-70.378-35.772c-4.558-3.32-5.562-9.705-2.242-14.263
						C2347.996,2676.781,2352.811,2675.434,2356.963,2676.929L2356.963,2676.929z"/>
				</g>
				<g>
					<path style="fill:#371A45;" d="M2332.34,2737.518c31.513,22.923,62.38,44.204,96.759,61.717
						c34.254,17.839,70.021,30.693,106.667,44.135c12.705,4.574,9.267,23.709-4.142,23.654
						c-63.213-0.725-126.496-25.027-174.358-66.439c-15.974-14.002-30.283-29.881-41.399-47.844
						c-3.32-5.365-1.662-12.406,3.703-15.727C2323.646,2734.491,2328.699,2734.84,2332.34,2737.518L2332.34,2737.518z"/>
				</g>
				<g style="opacity:0.2;">
					<path style="fill:#371A45;" d="M2773.588,2635.146c-145.843,79.926-350.259,123.784-464.282,220.644
						c-36.884-36.831-65.157-75.525-78.07-109.222l101.28-115.74C2491.607,2646.83,2640.405,2650.555,2773.588,2635.146z"/>
				</g>
				<g>
					<path style="fill:#371A45;" d="M2675.79,2289.873c-9.993,0-19.62-5.497-24.429-15.027
						c-6.805-13.479-1.394-29.926,12.085-36.731c76.204-38.465,153.145-50.328,214.97-59.857
						c62.745-9.676,103.179-16.969,115.433-38.567c-4.684-47.462-1.472-93.371,9.566-136.581c1.614-6.312,0.271-12.964-3.681-18.246
						c-2.124-2.836-6.859-7.638-14.714-7.921c-47.03-1.74-128.753,51.016-213.793,137.528
						c-10.586,10.765-27.895,10.921-38.665,0.332c-10.77-10.584-10.918-27.895-0.332-38.665
						c57.799-58.798,167.864-157.024,254.752-153.844c22.354,0.803,42.961,11.668,56.532,29.807
						c13.913,18.595,18.61,42.119,12.883,64.541c-9.957,38.972-12.456,80.761-7.43,124.201c0.476,4.111,0.012,8.275-1.355,12.18
						c-20.169,57.587-85.37,67.639-160.866,79.277c-61.026,9.407-130.196,20.07-198.657,54.633
						C2684.138,2288.926,2679.933,2289.873,2675.79,2289.873z"/>
				</g>
				<g style="opacity:0.2;">
					<path style="fill:#371A45;" d="M2976.147,1949.762l-178.591,270.682c-39.329,8.721-80.77,21.336-121.788,42.08l75.96-167.219
						C2832.076,2013.6,2916.729,1954.08,2976.147,1949.762z"/>
				</g>
				<g>
					<path style="fill:#371A45;" d="M1678.981,2328.904c-9.403,0-18.761-2.651-26.885-7.841
						c-13.664-8.739-22.337-23.648-23.196-39.88c-0.002,0-0.002,0-0.002,0c-8.555-161.723,56.406-262.09,193.074-298.365
						c145.625-74.769,270.179-171.306,370.251-286.975c10.533-12.178,25.803-18.827,41.967-18.104
						c15.976,0.666,30.505,8.414,39.863,21.253c30.441,41.782,32.079,86.974,4.862,134.321c-3.935,6.844-5.895,15.153-5.668,24.029
						l3.242,127.991c0.483,19.218-8.724,37.037-24.627,47.674c-176.935,118.347-358.298,213.979-554.458,292.363
						C1691.479,2327.737,1685.22,2328.904,1678.981,2328.904z M2231.691,1733.797c-104.983,120.749-235.337,221.363-387.482,299.073
						c-1.797,0.918-3.688,1.63-5.641,2.133c-111.334,28.564-160.81,103.994-155.352,237.139
						c190.236-76.49,366.358-169.622,538.245-284.588c0.229-0.151,0.371-0.483,0.361-0.84l-3.242-127.986
						c-0.479-18.91,3.991-37.122,12.927-52.666C2247.266,1778.642,2247.379,1756.852,2231.691,1733.797z"/>
				</g>
				<g>
					<path style="fill:#371A45;" d="M1698.514,2271.528c8.62-37.552,19.188-74.929,33.637-111.155
						c14.465-36.113,32.972-71.344,58.245-101.714c4.591-5.517,12.784-6.267,18.301-1.676c5.136,4.269,6.135,11.674,2.558,17.112
						c-38.397,61.394-51.391,134.82-58.771,206.235C1747.017,2318.475,1691.609,2309.567,1698.514,2271.528L1698.514,2271.528z"/>
				</g>
				<g>
					<path style="fill:#371A45;" d="M1786.983,2231.375c25.675-80.975,65.146-155.378,112.163-222.844
						c2.638-3.785,7.844-4.715,11.629-2.077c3.424,2.387,4.505,6.888,2.727,10.525c-35.457,72.731-61.498,149.36-73.301,226.969
						C1832.477,2282.404,1776.697,2269.322,1786.983,2231.375L1786.983,2231.375z"/>
				</g>
				<g>
					<path style="fill:#371A45;" d="M1879.222,2190.008c13.633-61.47,40.543-117.592,74.15-167.118
						c7.614-11.064,24.817-1.503,19.454,10.773c-23.15,52.871-37.609,108.626-39.398,163.557
						C1930.024,2237.102,1872.108,2229.478,1879.222,2190.008L1879.222,2190.008z"/>
				</g>
				<g>
					<path style="fill:#371A45;" d="M1954.023,2141.258c10.63-35.87,25.503-68.951,42.196-100.491
						c16.749-31.519,35.439-61.48,55.107-90.548c6.563-9.557,21.436-1.217,16.652,9.358c-14.237,31.498-27.223,63.421-37.844,95.712
						c-10.586,32.249-18.825,64.995-22.569,97.09C2001.03,2191.388,1944.5,2179.748,1954.023,2141.258L1954.023,2141.258z"/>
				</g>
				<g>
					<path style="fill:#371A45;" d="M2047.379,2095.557c34.013-86.808,77.357-168.113,122.958-248.676
						c2.27-3.99,7.344-5.386,11.334-3.116c3.651,2.076,5.124,6.511,3.611,10.304c-33.261,84.126-64.785,170.171-85.696,257.752
						C2088.965,2149.097,2034.963,2132.419,2047.379,2095.557L2047.379,2095.557z"/>
				</g>
			</g>
		</g>
		<g>
			<g style="opacity:0.5;">
				<circle style="fill:#37DBFF;" cx="1148.767" cy="1571.143" r="84.653"/>
			</g>
			<g>
				<path style="fill:#CFFFFE;" d="M1148.767,1667.03c-52.871,0-95.885-43.014-95.885-95.885c0-52.871,43.014-95.888,95.885-95.888
					c52.871,0,95.885,43.017,95.885,95.888C1244.653,1624.015,1201.638,1667.03,1148.767,1667.03z M1148.767,1497.723
					c-40.483,0-73.419,32.936-73.419,73.421c0,40.483,32.936,73.419,73.419,73.419s73.419-32.936,73.419-73.419
					C1222.186,1530.659,1189.25,1497.723,1148.767,1497.723z"/>
			</g>
			<g>
				<g style="opacity:0.6;">
					
						<ellipse transform="matrix(0.6801 -0.7331 0.7331 0.6801 -779.6212 1317.0835)" style="fill:#FFFFFF;" cx="1119.501" cy="1551.949" rx="35.257" ry="21.216"/>
				</g>
				<g style="opacity:0.6;">
					<circle style="fill:#FFFFFF;" cx="1159.376" cy="1519.611" r="9.691"/>
				</g>
			</g>
		</g>
		<g>
			<g style="opacity:0.5;">
				<circle style="fill:#37DBFF;" cx="853.006" cy="1317.994" r="114.536"/>
			</g>
			<g>
				<path style="fill:#CFFFFE;" d="M853.007,1447.727c-71.534,0-129.734-58.2-129.734-129.734s58.2-129.734,129.734-129.734
					c71.535,0,129.732,58.2,129.732,129.734S924.541,1447.727,853.007,1447.727z M853.007,1218.654
					c-54.775,0-99.339,44.565-99.339,99.339s44.565,99.339,99.339,99.339c54.775,0,99.337-44.565,99.337-99.339
					S907.782,1218.654,853.007,1218.654z"/>
			</g>
			<g>
				<g style="opacity:0.6;">
					
						<ellipse transform="matrix(0.6801 -0.7331 0.7331 0.6801 -686.9811 1009.5556)" style="fill:#FFFFFF;" cx="813.408" cy="1292.023" rx="47.703" ry="28.706"/>
				</g>
				<g style="opacity:0.6;">
					
						<ellipse transform="matrix(0.7071 -0.7071 0.7071 0.7071 -628.6163 978.9248)" style="fill:#FFFFFF;" cx="867.359" cy="1248.27" rx="13.112" ry="13.112"/>
				</g>
			</g>
		</g>
	</g>
</g>
</svg>
